<?xml version="1.0" encoding="UTF-8"?>
<svg version="1.1" xmlns="http://www.w3.org/2000/svg" width="500" height="500">
<path d="M0 0 C10.82463698 4.47500684 16.8968852 2.5922954 27.61816406 -1.13964844 C46.3384857 -7.4975742 65.09998033 -12.59547377 84.49316406 -16.45214844 C85.80897461 -16.71874268 85.80897461 -16.71874268 87.15136719 -16.99072266 C111.06000185 -21.75901777 135.78698659 -24.73439193 160.18066406 -24.95214844 C161.28885498 -24.97051758 162.3970459 -24.98888672 163.53881836 -25.0078125 C171.77039745 -24.94408579 178.31181142 -23.05387897 185.30566406 -18.70214844 C191.22197996 -12.61679495 194.49896633 -5.69369626 194.86816406 2.79785156 C194.69081266 10.95601625 191.84215282 18.03845451 186.25878906 24.01660156 C179.18306255 30.15307234 170.74861316 32.55481215 161.54003906 33.25878906 C160.19879055 33.36773943 158.85756422 33.47696307 157.51635742 33.58642578 C156.47171829 33.6680899 156.47171829 33.6680899 155.40597534 33.75140381 C117.87784551 35.45925754 117.87784551 35.45925754 82.49316406 45.54785156 C83.15316406 45.87785156 83.81316406 46.20785156 84.49316406 46.54785156 C84.49316406 47.20785156 84.49316406 47.86785156 84.49316406 48.54785156 C85.23953125 48.80179687 85.98589844 49.05574219 86.75488281 49.31738281 C89.66449896 50.62484228 91.14492006 51.91994378 93.30566406 54.23535156 C95.88163672 56.91705444 98.47016467 59.45482544 101.30566406 61.86035156 C104.83175879 64.90081647 108.18101847 68.09074436 111.49316406 71.36035156 C112.23336792 72.08121948 112.23336792 72.08121948 112.98852539 72.81665039 C114.19679903 74.02150297 115.35017477 75.28089836 116.49316406 76.54785156 C116.49316406 77.20785156 116.49316406 77.86785156 116.49316406 78.54785156 C117.15316406 78.54785156 117.81316406 78.54785156 118.49316406 78.54785156 C118.49316406 79.20785156 118.49316406 79.86785156 118.49316406 80.54785156 C119.15316406 80.54785156 119.81316406 80.54785156 120.49316406 80.54785156 C122.21972656 82.44628906 122.21972656 82.44628906 124.11816406 84.92285156 C124.74980469 85.73496094 125.38144531 86.54707031 126.03222656 87.38378906 C127.49316406 89.54785156 127.49316406 89.54785156 127.49316406 91.54785156 C128.15316406 91.54785156 128.81316406 91.54785156 129.49316406 91.54785156 C130.77075195 92.9621582 130.77075195 92.9621582 132.21582031 94.95800781 C132.75005615 95.6933374 133.28429199 96.42866699 133.8347168 97.1862793 C134.40262939 97.98622314 134.97054199 98.78616699 135.55566406 99.61035156 C136.13840088 100.42511963 136.7211377 101.2398877 137.3215332 102.0793457 C142.4595847 109.34534142 147.10108447 116.81320538 151.49316406 124.54785156 C152.42515625 126.16626953 152.42515625 126.16626953 153.37597656 127.81738281 C157.49316406 135.12299691 157.49316406 135.12299691 157.49316406 138.54785156 C158.15316406 138.54785156 158.81316406 138.54785156 159.49316406 138.54785156 C159.70932373 139.06581299 159.9254834 139.58377441 160.14819336 140.11743164 C161.15725499 142.53247928 162.16870792 144.94651535 163.18066406 147.36035156 C163.54861084 148.23965332 163.91655762 149.11895508 164.2956543 150.02490234 C166.12435471 154.37474321 167.99760914 158.67552344 170.05566406 162.92285156 C185.95845358 197.55677906 192.59060005 238.09379076 192.78833008 275.93286133 C192.7999272 277.47331877 192.82049898 279.01373369 192.84985352 280.55395508 C193.04180604 290.69312348 192.90154037 299.57701276 186.64160156 308.05566406 C186.05636719 308.58933594 185.47113281 309.12300781 184.86816406 309.67285156 C184.27777344 310.23230469 183.68738281 310.79175781 183.07910156 311.36816406 C181.49316406 312.54785156 181.49316406 312.54785156 179.49316406 312.54785156 C179.49316406 313.20785156 179.49316406 313.86785156 179.49316406 314.54785156 C171.027265 319.20721616 161.94596059 319.89858841 152.49316406 318.54785156 C148.71471781 317.38817749 145.72066012 315.80646966 142.49316406 313.54785156 C141.42066406 312.84660156 140.34816406 312.14535156 139.24316406 311.42285156 C130.91692753 302.71814973 129.55770701 293.5163254 129.13378906 281.94628906 C128.31357999 262.11085714 126.38448634 243.05269002 122.49316406 223.54785156 C122.21786865 222.15203857 122.21786865 222.15203857 121.93701172 220.72802734 C119.37700286 207.96658828 116.0065545 195.64425842 110.82128906 183.68066406 C109.90887677 181.52844447 109.04667549 179.35445927 108.22753906 177.16503906 C102.3446313 161.51109483 94.12879151 147.19011115 84.20166016 133.75146484 C80.49316406 128.72510398 80.49316406 128.72510398 80.49316406 126.54785156 C79.83316406 126.54785156 79.17316406 126.54785156 78.49316406 126.54785156 C76.54785156 124.43066406 76.54785156 124.43066406 74.36816406 121.67285156 C73.64371094 120.76792969 72.91925781 119.86300781 72.17285156 118.93066406 C70.49316406 116.54785156 70.49316406 116.54785156 70.49316406 114.54785156 C69.50316406 114.21785156 68.51316406 113.88785156 67.49316406 113.54785156 C67.49316406 112.88785156 67.49316406 112.22785156 67.49316406 111.54785156 C66.83316406 111.54785156 66.17316406 111.54785156 65.49316406 111.54785156 C65.49316406 110.88785156 65.49316406 110.22785156 65.49316406 109.54785156 C64.83316406 109.54785156 64.17316406 109.54785156 63.49316406 109.54785156 C63.49316406 108.88785156 63.49316406 108.22785156 63.49316406 107.54785156 C62.83316406 107.54785156 62.17316406 107.54785156 61.49316406 107.54785156 C61.49316406 106.88785156 61.49316406 106.22785156 61.49316406 105.54785156 C60.83316406 105.54785156 60.17316406 105.54785156 59.49316406 105.54785156 C59.49316406 104.88785156 59.49316406 104.22785156 59.49316406 103.54785156 C58.93113281 103.29003906 58.36910156 103.03222656 57.79003906 102.76660156 C55.22611827 101.4061538 53.04090041 99.81996195 50.74316406 98.04785156 C49.94394531 97.43941406 49.14472656 96.83097656 48.32128906 96.20410156 C47.71800781 95.65753906 47.11472656 95.11097656 46.49316406 94.54785156 C46.49316406 93.88785156 46.49316406 93.22785156 46.49316406 92.54785156 C45.83316406 92.34160156 45.17316406 92.13535156 44.49316406 91.92285156 C41.96219351 90.76282339 40.282983 89.72109589 38.11816406 88.04785156 C34.15767008 84.99261335 30.07687002 82.15504308 25.93066406 79.36035156 C25.30562988 78.93238281 24.6805957 78.50441406 24.03662109 78.06347656 C19.99259958 75.354014 16.17204269 72.96277018 11.49316406 71.54785156 C8.38095055 72.33153272 8.38095055 72.33153272 5.49316406 74.23535156 C4.37941406 74.89535156 3.26566406 75.55535156 2.11816406 76.23535156 C0.90667011 77.00120787 -0.30153341 77.7722877 -1.50683594 78.54785156 C-2.15910156 78.96421875 -2.81136719 79.38058594 -3.48339844 79.80957031 C-11.61592768 85.02969413 -11.61592768 85.02969413 -19.31933594 90.84863281 C-21.50683594 92.54785156 -21.50683594 92.54785156 -23.50683594 92.54785156 C-23.50683594 93.20785156 -23.50683594 93.86785156 -23.50683594 94.54785156 C-24.77521477 95.62301298 -26.101637 96.62957813 -27.44433594 97.61035156 C-39.75218645 107.23572184 -50.63184933 118.70960757 -59.50683594 131.54785156 C-60.35239877 132.70398843 -61.20153114 133.85752083 -62.05371094 135.00878906 C-67.14461435 141.91901514 -71.69614617 148.83486892 -75.50683594 156.54785156 C-75.87808594 157.29454102 -76.24933594 158.04123047 -76.63183594 158.81054688 C-82.25683034 170.17918791 -87.33742941 181.56908044 -91.50683594 193.54785156 C-92.03857422 194.97291016 -92.03857422 194.97291016 -92.58105469 196.42675781 C-101.93018928 222.40478793 -104.75111678 250.52549115 -105.82397461 277.92114258 C-106.79942874 301.94284753 -106.79942874 301.94284753 -115.55371094 310.56347656 C-124.95952509 318.28273094 -133.36058048 319.73690604 -145.50683594 318.54785156 C-150.3551343 317.24065213 -154.34139961 315.32480911 -158.50683594 312.54785156 C-158.50683594 311.88785156 -158.50683594 311.22785156 -158.50683594 310.54785156 C-159.16683594 310.54785156 -159.82683594 310.54785156 -160.50683594 310.54785156 C-160.50683594 309.88785156 -160.50683594 309.22785156 -160.50683594 308.54785156 C-161.49683594 308.21785156 -162.48683594 307.88785156 -163.50683594 307.54785156 C-164.85839844 305.62207031 -164.85839844 305.62207031 -166.13183594 303.23535156 C-166.55722656 302.45546875 -166.98261719 301.67558594 -167.42089844 300.87207031 C-170.48278934 294.31874267 -169.70458722 287.19440126 -169.69433594 280.11035156 C-169.69406403 279.41356293 -169.69379211 278.71677429 -169.69351196 277.99887085 C-169.67213101 266.08249523 -169.04427928 254.36860143 -167.50683594 242.54785156 C-167.36205811 241.35071533 -167.36205811 241.35071533 -167.21435547 240.12939453 C-162.8800973 204.72227728 -151.901229 170.16051819 -135.50683594 138.54785156 C-134.6919013 136.86152596 -133.87908337 135.17417411 -133.06933594 133.48535156 C-123.90253719 115.30252378 -111.98068491 98.12850522 -98.51855469 82.88378906 C-96.49341773 80.72501651 -96.49341773 80.72501651 -95.50683594 78.54785156 C-94.84683594 78.54785156 -94.18683594 78.54785156 -93.50683594 78.54785156 C-93.24725098 77.96302002 -92.98766602 77.37818848 -92.72021484 76.77563477 C-91.42039686 74.38914803 -90.01726871 72.81482945 -88.09277344 70.90332031 C-87.4134375 70.22591797 -86.73410156 69.54851562 -86.03417969 68.85058594 C-85.32390625 68.15255859 -84.61363281 67.45453125 -83.88183594 66.73535156 C-83.19476563 66.04892578 -82.50769531 65.3625 -81.79980469 64.65527344 C-74.78623122 57.700914 -67.47341597 51.38052623 -59.50683594 45.54785156 C-66.66099703 43.25030113 -73.81584252 41.51810177 -81.19433594 40.11035156 C-82.30429932 39.89789795 -83.4142627 39.68544434 -84.55786133 39.46655273 C-101.2070711 36.38379257 -118.06887348 34.3262912 -134.91992188 32.71557617 C-147.5996371 31.49895311 -156.55617968 29.49850782 -165.75683594 20.29785156 C-170.23734706 13.25704838 -172.99096211 5.93745737 -171.50683594 -2.45214844 C-170.09265448 -6.58214549 -168.39858307 -10.52001691 -166.50683594 -14.45214844 C-165.84683594 -14.45214844 -165.18683594 -14.45214844 -164.50683594 -14.45214844 C-164.50683594 -15.11214844 -164.50683594 -15.77214844 -164.50683594 -16.45214844 C-163.84683594 -16.45214844 -163.18683594 -16.45214844 -162.50683594 -16.45214844 C-162.50683594 -17.11214844 -162.50683594 -17.77214844 -162.50683594 -18.45214844 C-160.49511719 -19.92480469 -160.49511719 -19.92480469 -157.81933594 -21.51464844 C-156.94921875 -22.041875 -156.07910156 -22.56910156 -155.18261719 -23.11230469 C-117.69831373 -41.88181722 -37.54479929 -15.54695532 0 0 Z " fill="#1C7179" transform="translate(238.5068359375,94.4521484375)"/>
<path d="M0 0 C-0.66 0.66 -1.32 1.32 -2 2 C-1.01 2.495 -1.01 2.495 0 3 C0 3.66 0 4.32 0 5 C1.11955078 5.38091797 1.11955078 5.38091797 2.26171875 5.76953125 C5.1713349 7.07699072 6.651756 8.37209222 8.8125 10.6875 C11.38847266 13.36920288 13.97700061 15.90697388 16.8125 18.3125 C20.33859472 21.35296491 23.68785441 24.5428928 27 27.8125 C27.49346924 28.29307861 27.98693848 28.77365723 28.49536133 29.26879883 C29.70363497 30.47365141 30.85701071 31.7330468 32 33 C32 33.66 32 34.32 32 35 C32.66 35 33.32 35 34 35 C34 35.66 34 36.32 34 37 C34.66 37 35.32 37 36 37 C37.7265625 38.8984375 37.7265625 38.8984375 39.625 41.375 C40.25664062 42.18710938 40.88828125 42.99921875 41.5390625 43.8359375 C43 46 43 46 43 48 C43.66 48 44.32 48 45 48 C46.27758789 49.41430664 46.27758789 49.41430664 47.72265625 51.41015625 C48.52401001 52.51315063 48.52401001 52.51315063 49.34155273 53.63842773 C49.90946533 54.43837158 50.47737793 55.23831543 51.0625 56.0625 C51.93660522 57.2846521 51.93660522 57.2846521 52.82836914 58.53149414 C57.96642064 65.79748986 62.60792041 73.26535382 67 81 C67.62132812 82.07894531 68.24265625 83.15789062 68.8828125 84.26953125 C73 91.57514535 73 91.57514535 73 95 C73.66 95 74.32 95 75 95 C75.21615967 95.51796143 75.43231934 96.03592285 75.6550293 96.56958008 C76.66409093 98.98462772 77.67554386 101.39866379 78.6875 103.8125 C79.23942017 105.13145264 79.23942017 105.13145264 79.80249023 106.47705078 C81.63119065 110.82689165 83.50444507 115.12767188 85.5625 119.375 C101.46528951 154.0089275 108.09743599 194.5459392 108.29516602 232.38500977 C108.30676314 233.92546721 108.32733491 235.46588213 108.35668945 237.00610352 C108.54864198 247.14527192 108.40837631 256.0291612 102.1484375 264.5078125 C101.56320312 265.04148437 100.97796875 265.57515625 100.375 266.125 C99.78460938 266.68445313 99.19421875 267.24390625 98.5859375 267.8203125 C97 269 97 269 95 269 C95 269.66 95 270.32 95 271 C86.53410094 275.65936459 77.45279653 276.35073685 68 275 C64.22155375 273.84032593 61.22749606 272.2586181 58 270 C56.9275 269.29875 55.855 268.5975 54.75 267.875 C46.42376347 259.17029817 45.06454295 249.96847384 44.640625 238.3984375 C43.82041592 218.56300558 41.89132228 199.50483846 38 180 C37.72470459 178.60418701 37.72470459 178.60418701 37.44384766 177.18017578 C34.8838388 164.41873672 31.51339044 152.09640685 26.328125 140.1328125 C25.41571271 137.98059291 24.55351143 135.80660771 23.734375 133.6171875 C17.85146723 117.96324327 9.63562745 103.64225959 -0.29150391 90.20361328 C-4 85.17725242 -4 85.17725242 -4 83 C-4.66 83 -5.32 83 -6 83 C-7.9453125 80.8828125 -7.9453125 80.8828125 -10.125 78.125 C-11.21167969 76.76761719 -11.21167969 76.76761719 -12.3203125 75.3828125 C-14 73 -14 73 -14 71 C-15.485 70.505 -15.485 70.505 -17 70 C-17 69.34 -17 68.68 -17 68 C-17.66 68 -18.32 68 -19 68 C-19 67.34 -19 66.68 -19 66 C-19.66 66 -20.32 66 -21 66 C-21 65.34 -21 64.68 -21 64 C-21.66 64 -22.32 64 -23 64 C-23 63.34 -23 62.68 -23 62 C-23.66 62 -24.32 62 -25 62 C-25 61.34 -25 60.68 -25 60 C-25.56203125 59.7421875 -26.1240625 59.484375 -26.703125 59.21875 C-29.26704579 57.85830223 -31.45226365 56.27211038 -33.75 54.5 C-34.54921875 53.8915625 -35.3484375 53.283125 -36.171875 52.65625 C-36.77515625 52.1096875 -37.3784375 51.563125 -38 51 C-38 50.34 -38 49.68 -38 49 C-38.66 48.79375 -39.32 48.5875 -40 48.375 C-42.53097055 47.21497183 -44.21018106 46.17324433 -46.375 44.5 C-50.33549398 41.44476179 -54.41629404 38.60719152 -58.5625 35.8125 C-59.18753418 35.38453125 -59.81256836 34.9565625 -60.45654297 34.515625 C-64.49376315 31.81071928 -68.37000269 29.53044064 -73 28 C-75.18217003 28.4895474 -75.18217003 28.4895474 -76.8125 29.875 C-77.864375 30.57625 -78.91625 31.2775 -80 32 C-80.66 31.67 -81.32 31.34 -82 31 C-81.01 29.68 -80.02 28.36 -79 27 C-78.01 27.33 -77.02 27.66 -76 28 C-76 27.01 -76 26.02 -76 25 C-75.14277344 24.896875 -74.28554687 24.79375 -73.40234375 24.6875 C-69.70590024 23.94057227 -66.93377826 22.68369042 -63.5625 21 C-18.92500691 -0.52569464 -18.92500691 -0.52569464 0 0 Z " fill="#85CECB" transform="translate(323,138)"/>
<path d="M0 0 C-0.50112305 0.22026855 -1.00224609 0.44053711 -1.51855469 0.66748047 C-23.7552764 10.47483279 -44.27264594 21.06070168 -64.16015625 35.0546875 C-65.09730469 35.69664062 -66.03445312 36.33859375 -67 37 C-68.20462891 37.91845703 -68.20462891 37.91845703 -69.43359375 38.85546875 C-73.12571017 40.50202904 -75.16605862 39.58368872 -79 38.4375 C-80.44524344 38.03540338 -81.89194147 37.63850844 -83.33984375 37.24609375 C-84.10280762 37.03710449 -84.86577148 36.82811523 -85.65185547 36.61279297 C-106.01389037 31.29893275 -127.51753568 29.15662607 -148.42407227 27.16552734 C-161.09959292 25.95537337 -170.05431558 23.94568442 -179.25 14.75 C-183.73051112 7.70919681 -186.48412617 0.38960581 -185 -8 C-183.58581854 -12.12999706 -181.89174713 -16.06786847 -180 -20 C-179.34 -20 -178.68 -20 -178 -20 C-178 -20.66 -178 -21.32 -178 -22 C-177.34 -22 -176.68 -22 -176 -22 C-176 -22.66 -176 -23.32 -176 -24 C-173.98828125 -25.47265625 -173.98828125 -25.47265625 -171.3125 -27.0625 C-170.44238281 -27.58972656 -169.57226562 -28.11695312 -168.67578125 -28.66015625 C-129.89543896 -48.07863421 -37.45631691 -19.61890844 0 0 Z " fill="#88D0CC" transform="translate(252,100)"/>
<path d="M0 0 C8.29407098 6.67131796 11.44948104 12.99948748 13.75 23.1875 C14.53543471 31.59332253 10.91819382 38.98765605 6.27734375 45.73046875 C5.81457031 46.25253906 5.35179687 46.77460938 4.875 47.3125 C4.215 47.3125 3.555 47.3125 2.875 47.3125 C2.875 47.9725 2.875 48.6325 2.875 49.3125 C-6.60345141 55.55712681 -15.95190762 57.29950685 -27.125 55.3125 C-31.46986991 53.9607627 -35.33360501 51.81036023 -39.125 49.3125 C-39.125 48.6525 -39.125 47.9925 -39.125 47.3125 C-39.785 47.3125 -40.445 47.3125 -41.125 47.3125 C-41.125 46.6525 -41.125 45.9925 -41.125 45.3125 C-41.785 45.3125 -42.445 45.3125 -43.125 45.3125 C-43.94337442 43.89921871 -44.75446219 42.48171654 -45.5625 41.0625 C-46.01496094 40.27359375 -46.46742188 39.4846875 -46.93359375 38.671875 C-50.53208603 31.54568045 -50.20876027 22.05799629 -48.0625 14.5 C-45.32737997 7.44831612 -39.05139867 0.71333986 -32.2734375 -2.58984375 C-21.37691983 -6.88901527 -10.10185327 -5.45500077 0 0 Z " fill="#1B6E75" transform="translate(268.125,217.6875)"/>
<path d="M0 0 C1.0725 0.350625 2.145 0.70125 3.25 1.0625 C7.25435111 2.06715761 7.25435111 2.06715761 11 1 C11.495 2.485 11.495 2.485 12 4 C10.99138916 4.33825806 10.99138916 4.33825806 9.96240234 4.68334961 C-9.39966671 11.20584597 -28.5357934 18.20962413 -47 27 C-47.66 26.34 -48.32 25.68 -49 25 C-48.443125 24.731875 -47.88625 24.46375 -47.3125 24.1875 C-42.37424914 21.93288201 -42.37424914 21.93288201 -39 18 C-39.66 17.67 -40.32 17.34 -41 17 C-38.08517222 16.19032562 -36.53886783 15.78154007 -33.6875 16.9375 C-32.8521875 17.4634375 -32.8521875 17.4634375 -32 18 C-32 17.34 -32 16.68 -32 16 C-28.535 15.505 -28.535 15.505 -25 15 C-24.67 14.01 -24.34 13.02 -24 12 C-21.5 11 -21.5 11 -18 10 C-16.95199219 9.60941406 -16.95199219 9.60941406 -15.8828125 9.2109375 C-10.68054445 7.28483826 -6.54187813 6.69771574 -1 7 C-1.020625 6.030625 -1.04125 5.06125 -1.0625 4.0625 C-1 1 -1 1 0 0 Z " fill="#175F64" transform="translate(297,137)"/>
<path d="M0 0 C0.33 0 0.66 0 1 0 C1.33 2.97 1.66 5.94 2 9 C1.01 9 0.02 9 -1 9 C-0.938125 9.763125 -0.87625 10.52625 -0.8125 11.3125 C-1.03698854 14.53016907 -1.71698403 14.89962531 -4 17 C-4.59070014 18.94603274 -4.59070014 18.94603274 -5 21 C-5.33 21.5775 -5.66 22.155 -6 22.75 C-7.0102304 25.02301839 -7.28686189 26.73300828 -7.5625 29.1875 C-8 33 -8 33 -9 34 C-9.193092 35.96310199 -9.38315966 37.92694998 -9.5234375 39.89453125 C-10 42 -10 42 -11.5078125 43.94140625 C-13.76539621 47.05592618 -13.46044992 50.01430182 -13.59375 53.7578125 C-13.7278125 54.49773437 -13.861875 55.23765625 -14 56 C-14.99 56.66 -15.98 57.32 -17 58 C-16.33947397 51.13052931 -14.7915028 44.65756471 -13 38 C-12.69892334 36.87674316 -12.39784668 35.75348633 -12.08764648 34.59619141 C-8.81891959 22.7779149 -4.54449605 11.37908297 0 0 Z " fill="#43838A" transform="translate(93,254)"/>
<path d="M0 0 C0 0.99 0 1.98 0 3 C-0.99 3.33 -1.98 3.66 -3 4 C-3 4.66 -3 5.32 -3 6 C-10.4971958 10.32827799 -16.28741093 13.06470538 -25 12 C-25.71800781 11.91878906 -26.43601563 11.83757812 -27.17578125 11.75390625 C-28.78973683 11.54367156 -30.39647858 11.27887329 -32 11 C-31.67 10.34 -31.34 9.68 -31 9 C-26.71 9.33 -22.42 9.66 -18 10 C-18 9.34 -18 8.68 -18 8 C-17.030625 7.71125 -16.06125 7.4225 -15.0625 7.125 C-11.89335797 6.35785318 -11.89335797 6.35785318 -11 4 C-8.75 3.18359375 -8.75 3.18359375 -6 2.4375 C-2.71746634 1.73509107 -2.71746634 1.73509107 0 0 Z " fill="#31676B" transform="translate(274,261)"/>
<path d="M0 0 C1.19979492 -0.00515625 2.39958984 -0.0103125 3.63574219 -0.015625 C12.04774923 0.05266616 12.04774923 0.05266616 15.4375 2.3125 C14.35210937 2.30089844 13.26671875 2.28929688 12.1484375 2.27734375 C10.70312673 2.26795862 9.25781409 2.25885919 7.8125 2.25 C7.09964844 2.24162109 6.38679688 2.23324219 5.65234375 2.22460938 C4.59853516 2.21977539 4.59853516 2.21977539 3.5234375 2.21484375 C2.8845459 2.20960693 2.2456543 2.20437012 1.58740234 2.19897461 C-0.66803094 2.27340837 -0.66803094 2.27340837 -3.27539062 2.79882812 C-7.2795189 3.42454752 -11.19584303 3.54202573 -15.2421875 3.62890625 C-16.46133347 3.6600779 -16.46133347 3.6600779 -17.70510864 3.69187927 C-20.28249257 3.75687579 -22.85997194 3.81602593 -25.4375 3.875 C-27.19271791 3.91823277 -28.94792643 3.96184852 -30.703125 4.00585938 C-34.98948738 4.11250549 -39.27594504 4.21391114 -43.5625 4.3125 C-43.5625 3.9825 -43.5625 3.6525 -43.5625 3.3125 C-29.01131788 1.42759722 -14.67583198 0.0153875 0 0 Z " fill="#8CB9BD" transform="translate(398.5625,69.6875)"/>
<path d="M0 0 C0 0.66 0 1.32 0 2 C-0.99 2.495 -0.99 2.495 -2 3 C-2.33 3.99 -2.66 4.98 -3 6 C-2.34 6.33 -1.68 6.66 -1 7 C-1.66 7 -2.32 7 -3 7 C-3 7.66 -3 8.32 -3 9 C-8.60509554 9.25477707 -8.60509554 9.25477707 -10.9375 7.75 C-12.96562766 6.73920715 -12.96562766 6.73920715 -14.73046875 7.79296875 C-16.49046773 8.85622587 -18.24545001 9.927775 -20 11 C-20.66 10.67 -21.32 10.34 -22 10 C-21.01 8.68 -20.02 7.36 -19 6 C-18.01 6.33 -17.02 6.66 -16 7 C-16 6.01 -16 5.02 -16 4 C-14.700625 3.8453125 -14.700625 3.8453125 -13.375 3.6875 C-9.94285634 3.14049226 -9.94285634 3.14049226 -6.875 1.4375 C-4 0 -4 0 0 0 Z " fill="#64A3A5" transform="translate(263,159)"/>
<path d="M0 0 C0 3.5934292 -0.58617491 4.41970421 -3 7 C-3.74894531 7.24878906 -4.49789062 7.49757812 -5.26953125 7.75390625 C-8.85610247 9.39069626 -10.9863469 11.93888419 -13.5 14.875 C-18.0635991 20.1288914 -22.23080006 24.67913145 -29 27 C-20.3901742 16.71020819 -10.85917877 7.88445693 0 0 Z " fill="#6EA5AB" transform="translate(179,140)"/>
<path d="M0 0 C0.33 0 0.66 0 1 0 C0.85856168 2.7294586 0.71200471 5.45848123 0.5625 8.1875 C0.50352539 9.34088867 0.50352539 9.34088867 0.44335938 10.51757812 C0.22492966 14.43251075 -0.08692108 18.17120688 -1 22 C-0.34 22.33 0.32 22.66 1 23 C0.34 23.33 -0.32 23.66 -1 24 C-2.22694779 27.68084338 -2.61050508 31.35391347 -3.0625 35.1875 C-3.15337891 35.93708984 -3.24425781 36.68667969 -3.33789062 37.45898438 C-3.5613731 39.30565535 -3.78105513 41.15278554 -4 43 C-4.33 43 -4.66 43 -5 43 C-5.28305554 34.13701369 -4.45584187 25.74575138 -3.0625 17 C-2.88009766 15.79988281 -2.69769531 14.59976562 -2.50976562 13.36328125 C-1.05746686 3.93126089 -1.05746686 3.93126089 0 0 Z " fill="#73A3A8" transform="translate(75,313)"/>
<path d="M0 0 C0.66 0.66 1.32 1.32 2 2 C0.35 2.33 -1.3 2.66 -3 3 C-3 2.34 -3 1.68 -3 1 C-3.99 1 -4.98 1 -6 1 C-6 0.34 -6 -0.32 -6 -1 C-14.71553604 -0.31145453 -23.34331879 0.79670963 -32 2 C-30.72424925 -0.55150151 -29.89449094 -0.66950875 -27.25 -1.625 C-18.39126166 -4.38982916 -8.38814626 -4.18447571 0 0 Z " fill="#73AAAE" transform="translate(265,216)"/>
<path d="M0 0 C0.99 0 1.98 0 3 0 C1.19228019 10.37060313 -0.91671213 20.68211502 -3 31 C-3.33 31 -3.66 31 -4 31 C-4.05413245 28.10391407 -4.09373641 25.20884805 -4.125 22.3125 C-4.14175781 21.49587891 -4.15851563 20.67925781 -4.17578125 19.83789062 C-4.2114802 15.42907071 -4.07580814 12.01268424 -2 8 C-1.34 8 -0.68 8 0 8 C0 5.36 0 2.72 0 0 Z " fill="#579193" transform="translate(139,302)"/>
<path d="M0 0 C0.66 0 1.32 0 2 0 C1.39310363 3.53756702 0.00463619 5.55302136 -2.25 8.3125 C-5.31013707 12.12347482 -8.19180064 16.00044334 -11 20 C-11.93423645 16.98968256 -12.04449911 16.13349732 -11 13 C-10.34 13 -9.68 13 -9 13 C-8.67 11.35 -8.34 9.7 -8 8 C-7.34 8 -6.68 8 -6 8 C-5.67 6.35 -5.34 4.7 -5 3 C-4.360625 2.87625 -3.72125 2.7525 -3.0625 2.625 C-2.381875 2.41875 -1.70125 2.2125 -1 2 C-0.67 1.34 -0.34 0.68 0 0 Z " fill="#5B8D92" transform="translate(185,213)"/>
<path d="M0 0 C0.6875 1.75 0.6875 1.75 1 4 C-0.3125 6.25 -0.3125 6.25 -2 8 C-2.66 8 -3.32 8 -4 8 C-4.12375 8.598125 -4.2475 9.19625 -4.375 9.8125 C-5 12 -5 12 -7 15 C-7 16.32 -7 17.64 -7 19 C-10 19 -10 19 -12 18 C-10.51724605 13.62466048 -8.24005492 10.40276821 -5.4375 6.75 C-4.8197168 5.93789062 -4.8197168 5.93789062 -4.18945312 5.109375 C-1.21552579 1.21552579 -1.21552579 1.21552579 0 0 Z " fill="#41868B" transform="translate(133,186)"/>
<path d="M0 0 C-0.25 1.8125 -0.25 1.8125 -1 4 C-1.66 4.474375 -2.32 4.94875 -3 5.4375 C-5.25275456 6.87886306 -5.25275456 6.87886306 -5.75 9.6875 C-5.8325 10.450625 -5.915 11.21375 -6 12 C-7.98 12.33 -9.96 12.66 -12 13 C-11.50036856 8.67743102 -10.22344124 6.70081922 -7.125 3.6875 C-6.07699219 2.64142578 -6.07699219 2.64142578 -5.0078125 1.57421875 C-3 0 -3 0 0 0 Z " fill="#206E79" transform="translate(234,218)"/>
<path d="M0 0 C-3.18762365 2.12508244 -5.26512223 2.5020163 -9 3 C-8.67 3.66 -8.34 4.32 -8 5 C-10.31 5 -12.62 5 -15 5 C-15 5.66 -15 6.32 -15 7 C-18.63 7 -22.26 7 -26 7 C-22.75910357 3.75910357 -18.4484235 3.10103786 -14.125 1.8125 C-13.21363281 1.52697266 -12.30226563 1.24144531 -11.36328125 0.94726562 C-10.48285156 0.68236328 -9.60242188 0.41746094 -8.6953125 0.14453125 C-7.89109863 -0.09934326 -7.08688477 -0.34321777 -6.25830078 -0.59448242 C-3.81725256 -1.03281551 -2.33059346 -0.78053209 0 0 Z " fill="#619C9E" transform="translate(296,86)"/>
<path d="M0 0 C0 4.72125542 -2.93713965 7.57152795 -6 11 C-7.94164742 12.5786818 -9.817753 13.75300172 -12 15 C-12.66 14.67 -13.32 14.34 -14 14 C-14 12 -14 10 -14 8 C-13.01 7.67 -12.02 7.34 -11 7 C-11 7.66 -11 8.32 -11 9 C-8.55519921 8.81171228 -8.55519921 8.81171228 -6 8 C-4.48887058 5.73330587 -3.86560153 3.5968046 -3 1 C-2.01 0.67 -1.02 0.34 0 0 Z " fill="#4A888D" transform="translate(128,395)"/>
<path d="M0 0 C0.33 0 0.66 0 1 0 C1.33 2.97 1.66 5.94 2 9 C1.01 9 0.02 9 -1 9 C-0.938125 9.763125 -0.87625 10.52625 -0.8125 11.3125 C-1.03698854 14.53016907 -1.71698403 14.89962531 -4 17 C-4.342045 18.33112513 -4.6740038 19.6648538 -5 21 C-5.65140796 22.43362072 -6.3396927 23.85101812 -7.0625 25.25 C-7.42472656 25.95640625 -7.78695312 26.6628125 -8.16015625 27.390625 C-8.43730469 27.92171875 -8.71445313 28.4528125 -9 29 C-10 27 -10 27 -9.41088867 24.83276367 C-8.91939331 23.51369019 -8.91939331 23.51369019 -8.41796875 22.16796875 C-8.06283203 21.20439453 -7.70769531 20.24082031 -7.34179688 19.24804688 C-6.96087891 18.23806641 -6.57996094 17.22808594 -6.1875 16.1875 C-5.63352539 14.68993164 -5.63352539 14.68993164 -5.06835938 13.16210938 C-3.43190201 8.75219464 -1.75905971 4.36260532 0 0 Z " fill="#7BAAAF" transform="translate(93,254)"/>
<path d="M0 0 C0.33 0 0.66 0 1 0 C1.02716089 3.02089478 1.04691657 6.04154129 1.0625 9.0625 C1.07087891 9.91005859 1.07925781 10.75761719 1.08789062 11.63085938 C1.10683006 16.5361722 0.83326345 21.16444755 0 26 C-0.33 26 -0.66 26 -1 26 C-1.33 23.69 -1.66 21.38 -2 19 C-2.66 19 -3.32 19 -4 19 C-3.67 16.36 -3.34 13.72 -3 11 C-2.67 11 -2.34 11 -2 11 C-1.34 7.37 -0.68 3.74 0 0 Z " fill="#317679" transform="translate(134,322)"/>
<path d="M0 0 C-1.84187015 1.84187015 -4.42739361 1.45953854 -6.89453125 1.71875 C-8.97747791 1.94877433 -8.97747791 1.94877433 -10.86108398 2.51147461 C-13.09514599 3.02173121 -15.03972074 3.11400199 -17.328125 3.09765625 C-18.12734375 3.09443359 -18.9265625 3.09121094 -19.75 3.08789062 C-20.575 3.07951172 -21.4 3.07113281 -22.25 3.0625 C-23.09046875 3.05798828 -23.9309375 3.05347656 -24.796875 3.04882812 C-26.86461401 3.03707961 -28.93231624 3.01914522 -31 3 C-31 2.67 -31 2.34 -31 2 C-23.98035675 0.60689161 -17.01105907 -0.2516812 -9.875 -0.6875 C-9.12871338 -0.73575928 -8.38242676 -0.78401855 -7.61352539 -0.83374023 C-2.25128519 -1.1256426 -2.25128519 -1.1256426 0 0 Z " fill="#579495" transform="translate(365,74)"/>
<path d="M0 0 C2.52469829 3.78704743 3.70459736 7.63891305 5.125 11.9375 C5.40214844 12.74896484 5.67929687 13.56042969 5.96484375 14.39648438 C6.22652344 15.18216797 6.48820312 15.96785156 6.7578125 16.77734375 C6.9964502 17.49140381 7.23508789 18.20546387 7.48095703 18.94116211 C8 21 8 21 8 25 C7.34 25 6.68 25 6 25 C2.37375879 16.88496506 0 8.94577347 0 0 Z " fill="#B1DFDD" transform="translate(410,263)"/>
<path d="M0 0 C0.66 0 1.32 0 2 0 C2.433125 0.763125 2.86625 1.52625 3.3125 2.3125 C4.79913083 5.15595421 4.79913083 5.15595421 7.5625 6.4375 C10.7613922 8.48807192 11.11891007 10.39554118 12 14 C11.01 14 10.02 14 9 14 C8.67 13.01 8.34 12.02 8 11 C7.01 10.67 6.02 10.34 5 10 C5 9.34 5 8.68 5 8 C4.34 8 3.68 8 3 8 C3 7.34 3 6.68 3 6 C2.34 6 1.68 6 1 6 C1 5.34 1 4.68 1 4 C0.34 4 -0.32 4 -1 4 C-0.67 2.68 -0.34 1.36 0 0 Z " fill="#9FD2D0" transform="translate(301,198)"/>
<path d="M0 0 C1.38294718 0.01329757 2.76582404 0.03715018 4.1484375 0.0703125 C4.85484375 0.07933594 5.56125 0.08835937 6.2890625 0.09765625 C8.03399848 0.12123647 9.77876045 0.15710789 11.5234375 0.1953125 C11.1934375 1.1853125 10.8634375 2.1753125 10.5234375 3.1953125 C6.5634375 2.8653125 2.6034375 2.5353125 -1.4765625 2.1953125 C-1.4765625 2.8553125 -1.4765625 3.5153125 -1.4765625 4.1953125 C-4.1165625 4.1953125 -6.7565625 4.1953125 -9.4765625 4.1953125 C-8.8578125 3.9065625 -8.2390625 3.6178125 -7.6015625 3.3203125 C-1.48773568 0.08358066 -1.48773568 0.08358066 0 0 Z " fill="#166062" transform="translate(395.4765625,122.8046875)"/>
<path d="M0 0 C0.66 0.33 1.32 0.66 2 1 C-2.75 4 -2.75 4 -5 4 C-5.33 4.99 -5.66 5.98 -6 7 C-6.721875 7.103125 -7.44375 7.20625 -8.1875 7.3125 C-11.09552566 7.87460886 -11.09552566 7.87460886 -13.6875 9.625 C-14.450625 10.07875 -15.21375 10.5325 -16 11 C-16.66 10.67 -17.32 10.34 -18 10 C-17.01 8.68 -16.02 7.36 -15 6 C-14.01 6.33 -13.02 6.66 -12 7 C-12 6.01 -12 5.02 -12 4 C-10.700625 3.8453125 -10.700625 3.8453125 -9.375 3.6875 C-5.92003269 3.13584299 -5.92003269 3.13584299 -2.75 1.375 C-1.8425 0.92125 -0.935 0.4675 0 0 Z " fill="#759BA2" transform="translate(259,159)"/>
<path d="M0 0 C5.47858463 2.23201596 9.54301744 6.67653778 12 12 C11.6875 14.3125 11.6875 14.3125 11 16 C10.67 14.35 10.34 12.7 10 11 C8.68 11 7.36 11 6 11 C6 9.35 6 7.7 6 6 C5.01 5.67 4.02 5.34 3 5 C1 3 1 3 0 0 Z " fill="#699DA2" transform="translate(419,74)"/>
<path d="M0 0 C0.66 0.99 1.32 1.98 2 3 C-1.96 5.64 -5.92 8.28 -10 11 C-10.33 10.01 -10.66 9.02 -11 8 C-10.01 8 -9.02 8 -8 8 C-7.67 6.35 -7.34 4.7 -7 3 C-5.02 3 -3.04 3 -1 3 C-0.67 2.01 -0.34 1.02 0 0 Z " fill="#5C8F93" transform="translate(232,172)"/>
<path d="M0 0 C0.825 0.33 1.65 0.66 2.5 1 C2.5 1.33 2.5 1.66 2.5 2 C0.75215171 2.36463732 -0.99840502 2.7163078 -2.75 3.0625 C-4.21179688 3.35833984 -4.21179688 3.35833984 -5.703125 3.66015625 C-8.368119 3.98397535 -9.98871723 3.85503199 -12.5 3 C-11.51 3 -10.52 3 -9.5 3 C-9.5 2.34 -9.5 1.68 -9.5 1 C-10.82 0.67 -12.14 0.34 -13.5 0 C-9.2617491 -2.11912545 -4.38187654 -1.25196473 0 0 Z " fill="#3F777B" transform="translate(351.5,131)"/>
<path d="M0 0 C1 2 1 2 0.43359375 4.13671875 C-1.91149841 10.14199396 -4.54109365 14.33841609 -9 19 C-9 15.36541336 -7.96060371 13.7743083 -6.1875 10.625 C-5.66542969 9.68914062 -5.14335938 8.75328125 -4.60546875 7.7890625 C-3.10003567 5.17378459 -1.56285877 2.58129826 0 0 Z " fill="#6AA0A5" transform="translate(114,213)"/>
<path d="M0 0 C4.48993869 0.58652352 8.22543184 1.7643538 12.375 3.5625 C13.43460938 4.01753906 14.49421875 4.47257812 15.5859375 4.94140625 C16.38257813 5.29074219 17.17921875 5.64007813 18 6 C18 6.33 18 6.66 18 7 C15.69 7.33 13.38 7.66 11 8 C11 7.34 11 6.68 11 6 C9.02 5.34 7.04 4.68 5 4 C5 3.34 5 2.68 5 2 C3.68 2.33 2.36 2.66 1 3 C0.67 2.01 0.34 1.02 0 0 Z " fill="#B1DEDD" transform="translate(224,90)"/>
<path d="M0 0 C0.99 0.33 1.98 0.66 3 1 C3 1.66 3 2.32 3 3 C3.928125 3.1546875 3.928125 3.1546875 4.875 3.3125 C7 4 7 4 9 7 C6.36 7.33 3.72 7.66 1 8 C0.17361624 5.10765685 0 3.11257569 0 0 Z " fill="#7AB8B5" transform="translate(321,143)"/>
<path d="M0 0 C4.49983387 -0.39704417 7.05389398 0.94473645 11 3 C13.73572585 3.69907414 13.73572585 3.69907414 16 4 C15.34 4.66 14.68 5.32 14 6 C11.50390625 5.86328125 11.50390625 5.86328125 8.5625 5.3125 C7.59441406 5.14363281 6.62632813 4.97476563 5.62890625 4.80078125 C2.88868274 3.96609207 1.73968008 3.23504661 0 1 C0 0.67 0 0.34 0 0 Z " fill="#9AD0CD" transform="translate(82,120)"/>
<path d="M0 0 C0.66 0.33 1.32 0.66 2 1 C1.67 1.66 1.34 2.32 1 3 C0.01 3 -0.98 3 -2 3 C-2 3.66 -2 4.32 -2 5 C-3.62626404 6.38232443 -5.2925002 7.71937515 -7 9 C-7.66 8.67 -8.32 8.34 -9 8 C-9 7.34 -9 6.68 -9 6 C-9.66 5.67 -10.32 5.34 -11 5 C-9.21289414 4.13633178 -7.4201535 3.28431406 -5.625 2.4375 C-4.62726563 1.96183594 -3.62953125 1.48617187 -2.6015625 0.99609375 C-1.74304688 0.66738281 -0.88453125 0.33867188 0 0 Z " fill="#29757C" transform="translate(245,102)"/>
<path d="M0 0 C0.66 0 1.32 0 2 0 C2.10655578 6.44070471 1.96205088 12.62641289 1 19 C-2.10302911 13.6892822 -1.44557894 7.78486841 -0.5 1.875 C-0.335 1.25625 -0.17 0.6375 0 0 Z " fill="#1F6466" transform="translate(131,341)"/>
<path d="M0 0 C0.99 0 1.98 0 3 0 C3.33 0.99 3.66 1.98 4 3 C4.66 2.67 5.32 2.34 6 2 C5.50168276 5.68754757 4.89932357 7.60490662 2 10 C0 8 0 8 -0.1953125 6.0546875 C-0.13020833 4.03645833 -0.06510417 2.01822917 0 0 Z " fill="#2E767A" transform="translate(138,293)"/>
<path d="M0 0 C0.33 0 0.66 0 1 0 C1.02709444 2.08326131 1.04643873 4.16662441 1.0625 6.25 C1.07410156 7.41015625 1.08570313 8.5703125 1.09765625 9.765625 C1.01782092 12.40977128 0.78643778 14.49826091 0 17 C-1.65 17 -3.3 17 -5 17 C-3.25 12.125 -3.25 12.125 -1 11 C-1.020625 9.741875 -1.04125 8.48375 -1.0625 7.1875 C-1.10886083 4.35948913 -0.91692961 2.75078884 0 0 Z " fill="#176166" transform="translate(279,236)"/>
<path d="M0 0 C1.5625 1 1.5625 1 3 3 C2.96726452 5.76614782 2.49404328 8.26030547 2 11 C-0.40072955 8.11912454 -2.47291037 5.43595166 -4 2 C-2.68 2 -1.36 2 0 2 C0 1.34 0 0.68 0 0 Z " fill="#9ED2D1" transform="translate(325,222)"/>
<path d="M0 0 C-1.28965176 1.37562854 -2.62689293 2.70766393 -4 4 C-4.66 4 -5.32 4 -6 4 C-6 4.66 -6 5.32 -6 6 C-7.96147874 7.38938077 -9.96166576 8.7260411 -12 10 C-12.33 9.01 -12.66 8.02 -13 7 C-12.01 7 -11.02 7 -10 7 C-10 6.01 -10 5.02 -10 4 C-9.34 4 -8.68 4 -8 4 C-8 3.34 -8 2.68 -8 2 C-4.77208445 -0.1519437 -3.71599191 -0.20086443 0 0 Z " fill="#598C90" transform="translate(221,183)"/>
<path d="M0 0 C-0.66 0 -1.32 0 -2 0 C-2 0.66 -2 1.32 -2 2 C-8.625 5.125 -8.625 5.125 -12 4 C-12.33 3.34 -12.66 2.68 -13 2 C-11.5882217 1.46605821 -10.17029756 0.94834896 -8.75 0.4375 C-7.96109375 0.14746094 -7.1721875 -0.14257812 -6.359375 -0.44140625 C-3.80896548 -1.04522837 -2.44677771 -0.8473932 0 0 Z " fill="#AAD8D6" transform="translate(420,407)"/>
<path d="M0 0 C0 0.99 0 1.98 0 3 C-0.99 3.33 -1.98 3.66 -3 4 C-3 4.66 -3 5.32 -3 6 C-6 8 -6 8 -9 8 C-9 5.6875 -9 5.6875 -8 3 C-5.44481903 1.61706907 -2.79133871 0.78208351 0 0 Z " fill="#5A898D" transform="translate(274,261)"/>
<path d="M0 0 C4.12172083 3.76843047 7.63068221 7.88904305 10 13 C9.67 13.66 9.34 14.32 9 15 C8.01 14.34 7.02 13.68 6 13 C6 12.01 6 11.02 6 10 C5.34 10 4.68 10 4 10 C3.67 9.01 3.34 8.02 3 7 C2.34 7 1.68 7 1 7 C0.67 4.69 0.34 2.38 0 0 Z " fill="#B3DEDD" transform="translate(376,199)"/>
<path d="M0 0 C1.65 0.33 3.3 0.66 5 1 C4.06725891 2.12894876 3.12859878 3.25300876 2.1875 4.375 C1.66542969 5.00148437 1.14335937 5.62796875 0.60546875 6.2734375 C-1 8 -1 8 -4 10 C-4.33 9.34 -4.66 8.68 -5 8 C-4.67 7.01 -4.34 6.02 -4 5 C-2.68 5 -1.36 5 0 5 C0 3.35 0 1.7 0 0 Z " fill="#4B8386" transform="translate(192,203)"/>
<path d="M0 0 C1.69752187 0.25245197 3.38471545 0.57645775 5.0625 0.9375 C5.98160156 1.13214844 6.90070313 1.32679687 7.84765625 1.52734375 C8.91306641 1.76130859 8.91306641 1.76130859 10 2 C7.08526444 4.25257695 4.55069546 5.90747832 1 7 C0.01 6.67 -0.98 6.34 -2 6 C-1.34 6 -0.68 6 0 6 C0 5.34 0 4.68 0 4 C0.66 4 1.32 4 2 4 C1.16666667 1.83333333 1.16666667 1.83333333 -1 1 C-0.67 0.67 -0.34 0.34 0 0 Z " fill="#A4DDDC" transform="translate(242,97)"/>
<path d="M0 0 C0.66 0 1.32 0 2 0 C1.67 1.65 1.34 3.3 1 5 C-0.32 5.33 -1.64 5.66 -3 6 C-3 6.99 -3 7.98 -3 9 C-4.32 9.33 -5.64 9.66 -7 10 C-6.8125 7.1875 -6.8125 7.1875 -6 4 C-3.5 2.1875 -3.5 2.1875 -1 1 C-0.67 0.67 -0.34 0.34 0 0 Z " fill="#1D686D" transform="translate(167,236)"/>
<path d="M0 0 C3.125 0.3125 3.125 0.3125 5 2.3125 C5.556875 3.3025 5.556875 3.3025 6.125 4.3125 C3.23265685 5.13888376 1.23757569 5.3125 -1.875 5.3125 C-2.535 3.9925 -3.195 2.6725 -3.875 1.3125 C-2.875 0.3125 -2.875 0.3125 0 0 Z " fill="#398185" transform="translate(265.875,217.6875)"/>
<path d="M0 0 C0.99 0 1.98 0 3 0 C3 0.66 3 1.32 3 2 C3.66 2 4.32 2 5 2 C5 2.66 5 3.32 5 4 C4.01 4 3.02 4 2 4 C2 4.99 2 5.98 2 7 C1.01 7.33 0.02 7.66 -1 8 C-1.66 6.68 -2.32 5.36 -3 4 C-1.6875 2 -1.6875 2 0 0 Z " fill="#19666A" transform="translate(219,176)"/>
<path d="M0 0 C2.31 0.66 4.62 1.32 7 2 C4.03821227 3.67110042 1.62928808 4.32682752 -1.75 4.625 C-2.54921875 4.69976562 -3.3484375 4.77453125 -4.171875 4.8515625 C-4.77515625 4.90054688 -5.3784375 4.94953125 -6 5 C-6.33 3.68 -6.66 2.36 -7 1 C-5.5459375 1.0309375 -5.5459375 1.0309375 -4.0625 1.0625 C-1.12534105 1.35618499 -1.12534105 1.35618499 0 0 Z " fill="#5A8F93" transform="translate(329,133)"/>
<path d="M0 0 C2.75 -0.3125 2.75 -0.3125 6 0 C10 4 10 4 10 7 C5.56541027 5.6062718 3.12621626 3.39417765 0 0 Z " fill="#AEDCDA" transform="translate(376,403)"/>
<path d="M0 0 C-0.6875 2.4375 -0.6875 2.4375 -2 5 C-4.625 5.8125 -4.625 5.8125 -7 6 C-7 5.34 -7 4.68 -7 4 C-7.66 4 -8.32 4 -9 4 C-9 3.34 -9 2.68 -9 2 C-2.25 0 -2.25 0 0 0 Z " fill="#528D92" transform="translate(261,96)"/>
<path d="M0 0 C3.22269618 3.79817765 5.74520378 7.57391854 8 12 C7.67 12.66 7.34 13.32 7 14 C2.50664023 9.47915791 0.26327654 6.45027515 0 0 Z " fill="#B3E0DF" transform="translate(386,214)"/>
<path d="M0 0 C0.66 0 1.32 0 2 0 C1.42676569 3.86933162 -0.38953552 6.15222057 -3 9 C-3.66 9 -4.32 9 -5 9 C-5 7.02 -5 5.04 -5 3 C-4.360625 2.87625 -3.72125 2.7525 -3.0625 2.625 C-2.0415625 2.315625 -2.0415625 2.315625 -1 2 C-0.67 1.34 -0.34 0.68 0 0 Z " fill="#4E8488" transform="translate(185,213)"/>
<path d="M0 0 C1.12894876 0.93274109 2.25300876 1.87140122 3.375 2.8125 C4.00148438 3.33457031 4.62796875 3.85664063 5.2734375 4.39453125 C7 6 7 6 9 9 C8.278125 8.690625 7.55625 8.38125 6.8125 8.0625 C4.19692691 7.07439461 1.74881018 6.4712246 -1 6 C-0.67 4.02 -0.34 2.04 0 0 Z " fill="#A2D4D3" transform="translate(337,154)"/>
<path d="M0 0 C-5.14285714 5.57142857 -5.14285714 5.57142857 -9 6 C-9.33 4.68 -9.66 3.36 -10 2 C-6.5980513 -0.09350689 -3.94727588 -0.17942163 0 0 Z " fill="#8FD6D6" transform="translate(195,129)"/>
<path d="M0 0 C0 3.60573896 -0.81707462 4.41336566 -3 7.1875 C-3.556875 7.90292969 -4.11375 8.61835938 -4.6875 9.35546875 C-5.120625 9.89816406 -5.55375 10.44085938 -6 11 C-6.66 10.01 -7.32 9.02 -8 8 C-7.34 8 -6.68 8 -6 8 C-4.79371992 5.66785852 -3.8345262 3.50357861 -3 1 C-2.01 0.67 -1.02 0.34 0 0 Z " fill="#568D90" transform="translate(128,395)"/>
<path d="M0 0 C2.93200474 2.85276137 5.64315404 5.65079784 8 9 C7.67 9.66 7.34 10.32 7 11 C5 9.625 5 9.625 3 8 C3 7.34 3 6.68 3 6 C2.01 5.67 1.02 5.34 0 5 C0 3.35 0 1.7 0 0 Z " fill="#BAE0DF" transform="translate(368,188)"/>
<path d="M0 0 C2.97 0.495 2.97 0.495 6 1 C6 1.99 6 2.98 6 4 C5.01 4 4.02 4 3 4 C2.01 5.485 2.01 5.485 1 7 C0.34 7 -0.32 7 -1 7 C-0.67 4.69 -0.34 2.38 0 0 Z " fill="#166368" transform="translate(241,162)"/>
<path d="M0 0 C0.66 1.32 1.32 2.64 2 4 C2.66 4 3.32 4 4 4 C4 5.32 4 6.64 4 8 C5.32 8.33 6.64 8.66 8 9 C8 10.32 8 11.64 8 13 C4.35812142 11.78604047 4.08254007 10.90993923 2.3125 7.625 C1.87550781 6.83351563 1.43851562 6.04203125 0.98828125 5.2265625 C0 3 0 3 0 0 Z " fill="#6E9CA5" transform="translate(70,390)"/>
<path d="M0 0 C5.69051363 0.5381371 11.34865884 1.1400133 17 2 C16.01 2.33 15.02 2.66 14 3 C14 3.66 14 4.32 14 5 C13.34 4.690625 12.68 4.38125 12 4.0625 C9.4041494 3.14313625 7.44915851 2.76700309 4.75 2.5 C2.89375 2.2525 2.89375 2.2525 1 2 C0.67 1.34 0.34 0.68 0 0 Z " fill="#B2E1DD" transform="translate(157,74)"/>
<path d="M0 0 C2.31 0.33 4.62 0.66 7 1 C5 3 5 3 1.7421875 3.1953125 C0.46601562 3.17210937 -0.81015625 3.14890625 -2.125 3.125 C-4.04699219 3.09792969 -4.04699219 3.09792969 -6.0078125 3.0703125 C-7.48894531 3.03550781 -7.48894531 3.03550781 -9 3 C-9 2.34 -9 1.68 -9 1 C-6.03 1.33 -3.06 1.66 0 2 C0 1.34 0 0.68 0 0 Z " fill="#1D6768" transform="translate(103,409)"/>
<path d="M0 0 C0.99 0 1.98 0 3 0 C2.71617054 1.75128818 2.42260471 3.50100003 2.125 5.25 C1.96257812 6.22453125 1.80015625 7.1990625 1.6328125 8.203125 C1.05144152 10.77264117 0.29159735 12.72071056 -1 15 C-1.33 12.69 -1.66 10.38 -2 8 C-1.34 8 -0.68 8 0 8 C0 5.36 0 2.72 0 0 Z " fill="#6F9FA3" transform="translate(139,302)"/>
<path d="M0 0 C1.9453125 0.92578125 1.9453125 0.92578125 4.125 2.3125 C4.84945312 2.76238281 5.57390625 3.21226562 6.3203125 3.67578125 C6.87460938 4.11277344 7.42890625 4.54976563 8 5 C8 5.66 8 6.32 8 7 C4.33118845 6.29445932 1.29549466 4.72264494 -2 3 C-2 2.34 -2 1.68 -2 1 C-1.34 0.67 -0.68 0.34 0 0 Z " fill="#61878E" transform="translate(231,264)"/>
<path d="M0 0 C-2.62451617 2.62451617 -4.4877828 2.5832868 -8.125 3.125 C-9.22070312 3.29257813 -10.31640625 3.46015625 -11.4453125 3.6328125 C-12.70988281 3.81457031 -12.70988281 3.81457031 -14 4 C-8.93865118 -0.24058956 -6.52844852 -1.3056897 0 0 Z " fill="#1D5E63" transform="translate(325,136)"/>
<path d="M0 0 C0.97792207 3.18565522 1.04657813 5.81321089 0.75 9.125 C0.68296875 9.99382812 0.6159375 10.86265625 0.546875 11.7578125 C0 14 0 14 -3 16 C-2.40984815 10.49191603 -1.43336231 5.35121931 0 0 Z " fill="#5E989D" transform="translate(79,296)"/>
<path d="M0 0 C1.32 0 2.64 0 4 0 C5.125 4.75 5.125 4.75 4 7 C3.01 6.67 2.02 6.34 1 6 C1 5.01 1 4.02 1 3 C0.01 2.67 -0.98 2.34 -2 2 C-1.34 1.34 -0.68 0.68 0 0 Z " fill="#145A61" transform="translate(227,258)"/>
<path d="M0 0 C0.99 0.66 1.98 1.32 3 2 C-1.95 4.475 -1.95 4.475 -7 7 C-7.66 6.34 -8.32 5.68 -9 5 C-8.443125 4.731875 -7.88625 4.46375 -7.3125 4.1875 C-4.80287477 2.89877353 -2.40665764 1.47073522 0 0 Z " fill="#175A5E" transform="translate(257,157)"/>
<path d="M0 0 C1.32 0 2.64 0 4 0 C2.8141763 3.37503669 1.72426311 5.64722731 -1 8 C-1.66 6.68 -2.32 5.36 -3 4 C-2.34 3.67 -1.68 3.34 -1 3 C-0.67 2.01 -0.34 1.02 0 0 Z " fill="#5F969A" transform="translate(164,241)"/>
<path d="M0 0 C-0.3125 1.875 -0.3125 1.875 -1 4 C-4 6 -4 6 -6.1875 5.625 C-6.785625 5.41875 -7.38375 5.2125 -8 5 C-3.375 0 -3.375 0 0 0 Z " fill="#488C93" transform="translate(234,218)"/>
<path d="M0 0 C4.8 3.44615385 4.8 3.44615385 5.8125 6.25 C5.874375 6.8275 5.93625 7.405 6 8 C4.33333333 8 2.66666667 8 1 8 C0.67 5.36 0.34 2.72 0 0 Z " fill="#568D8F" transform="translate(272,222)"/>
<path d="M0 0 C0.98484375 0.19464844 1.9696875 0.38929687 2.984375 0.58984375 C4.10585937 0.82380859 4.10585937 0.82380859 5.25 1.0625 C5.25 1.3925 5.25 1.7225 5.25 2.0625 C3.50034642 2.11679959 1.75020213 2.15542823 0 2.1875 C-0.97453125 2.21070313 -1.9490625 2.23390625 -2.953125 2.2578125 C-5.7696498 2.06112781 -7.35949036 1.50818916 -9.75 0.0625 C-6.21905698 -1.13970203 -3.62101018 -0.73282349 0 0 Z " fill="#8BC1C1" transform="translate(117.75,125.9375)"/>
<path d="M0 0 C5.41798672 0.69165788 10.6822785 1.75799248 16 3 C16 3.33 16 3.66 16 4 C13.89505699 3.91291962 11.79097858 3.80474307 9.6875 3.6875 C7.92986328 3.60048828 7.92986328 3.60048828 6.13671875 3.51171875 C2.9016314 2.98395232 1.91315119 2.57619276 0 0 Z " fill="#BCE4E2" transform="translate(180,78)"/>
<path d="M0 0 C0.6875 1.75 0.6875 1.75 1 4 C-0.25 6.25 -0.25 6.25 -2 8 C-2.99 8 -3.98 8 -5 8 C-3.8141763 4.62496331 -2.72426311 2.35277269 0 0 Z " fill="#6EA5AA" transform="translate(133,186)"/>
<path d="M0 0 C0 0.66 0 1.32 0 2 C-1.7015625 2.680625 -1.7015625 2.680625 -3.4375 3.375 C-7.04721692 4.57095806 -7.04721692 4.57095806 -8 7 C-9.32 6.67 -10.64 6.34 -12 6 C-11.01 6 -10.02 6 -9 6 C-8.731875 5.38125 -8.46375 4.7625 -8.1875 4.125 C-6.04539468 0.2917589 -4.29196451 0 0 0 Z " fill="#146669" transform="translate(239,168)"/>
<path d="M0 0 C3.96 0.33 7.92 0.66 12 1 C12 1.33 12 1.66 12 2 C10.37585622 2.19477739 8.75063577 2.38059458 7.125 2.5625 C6.22007812 2.66691406 5.31515625 2.77132812 4.3828125 2.87890625 C2 3 2 3 0 2 C0 1.34 0 0.68 0 0 Z " fill="#508285" transform="translate(362,128)"/>
<path d="M0 0 C0.66 1.32 1.32 2.64 2 4 C0.35 5.65 -1.3 7.3 -3 9 C-3 7.68 -3 6.36 -3 5 C-2.34 5 -1.68 5 -1 5 C-0.67 3.35 -0.34 1.7 0 0 Z " fill="#A0D4D5" transform="translate(426,394)"/>
<path d="M0 0 C2.31 0.33 4.62 0.66 7 1 C7.33 2.65 7.66 4.3 8 6 C7.34 6 6.68 6 6 6 C5.67 5.34 5.34 4.68 5 4 C3.34051852 2.98812105 1.67419438 1.9873454 0 1 C0 0.67 0 0.34 0 0 Z " fill="#135A61" transform="translate(233,265)"/>
<path d="M0 0 C0.33 0 0.66 0 1 0 C1.33 2.97 1.66 5.94 2 9 C0.35 9.33 -1.3 9.66 -3 10 C-2.01 6.7 -1.02 3.4 0 0 Z " fill="#5E999F" transform="translate(93,254)"/>
<path d="M0 0 C1.32 0 2.64 0 4 0 C3.67 0.99 3.34 1.98 3 3 C3.66 3.33 4.32 3.66 5 4 C5.625 6.0625 5.625 6.0625 6 8 C5.34 8 4.68 8 4 8 C4 7.34 4 6.68 4 6 C3.34 6 2.68 6 2 6 C0 3 0 3 0 0 Z " fill="#55888E" transform="translate(223,257)"/>
<path d="M0 0 C0.66 0.99 1.32 1.98 2 3 C1.1875 4.9375 1.1875 4.9375 0 7 C-0.99 7.33 -1.98 7.66 -3 8 C-2.45276317 4.62537285 -1.9451 2.91765 0 0 Z " fill="#4F9297" transform="translate(101,237)"/>
<path d="M0 0 C6.52307692 1.47692308 6.52307692 1.47692308 8.9375 4.125 C9.288125 4.74375 9.63875 5.3625 10 6 C9.01 6.33 8.02 6.66 7 7 C7 6.34 7 5.68 7 5 C6.21625 4.731875 5.4325 4.46375 4.625 4.1875 C2 3 2 3 0 0 Z " fill="#A7D2D1" transform="translate(278,182)"/>
<path d="M0 0 C0.66 0.99 1.32 1.98 2 3 C-2.625 7 -2.625 7 -6 7 C-5.34 5.68 -4.68 4.36 -4 3 C-2.68 3 -1.36 3 0 3 C0 2.01 0 1.02 0 0 Z " fill="#44797C" transform="translate(239,167)"/>
<path d="M0 0 C2.31 0 4.62 0 7 0 C4.63404067 2.61500768 2.13950774 4.38999603 -1 6 C-1.66 5.67 -2.32 5.34 -3 5 C-2.505 4.54625 -2.01 4.0925 -1.5 3.625 C0.22609337 2.12364481 0.22609337 2.12364481 0 0 Z " fill="#9BDFDF" transform="translate(210,115)"/>
<path d="M0 0 C1.65 0 3.3 0 5 0 C3.95125002 2.62187494 3.35068687 3.79371361 0.875 5.25 C0.25625 5.4975 -0.3625 5.745 -1 6 C-0.67 4.02 -0.34 2.04 0 0 Z " fill="#669EA0" transform="translate(422,114)"/>
<path d="M0 0 C-3.16240582 2.10827055 -4.50657469 2.33817465 -8.1875 2.625 C-9.53908203 2.73714844 -9.53908203 2.73714844 -10.91796875 2.8515625 C-11.94857422 2.92503906 -11.94857422 2.92503906 -13 3 C-9.54666565 -0.45333435 -4.63654999 -1.85462 0 0 Z " fill="#93BFC1" transform="translate(296,86)"/>
<path d="M0 0 C0.66 0 1.32 0 2 0 C5 5.75 5 5.75 5 8 C4.34 8 3.68 8 3 8 C3 7.34 3 6.68 3 6 C2.34 6 1.68 6 1 6 C1 5.34 1 4.68 1 4 C0.34 4 -0.32 4 -1 4 C-0.67 2.68 -0.34 1.36 0 0 Z " fill="#AED8D7" transform="translate(301,198)"/>
<path d="M0 0 C0.66 0.33 1.32 0.66 2 1 C-2.75 4 -2.75 4 -5 4 C-5.33 4.99 -5.66 5.98 -6 7 C-6.99 6.67 -7.98 6.34 -9 6 C-6.45368965 3.02930459 -3.57769851 1.5224249 0 0 Z " fill="#82BBC0" transform="translate(259,159)"/>
<path d="M0 0 C0.33 0.99 0.66 1.98 1 3 C-1.35277269 5.72426311 -3.62496331 6.8141763 -7 8 C-6.02133662 6.85373678 -5.04205413 5.70800212 -4.0625 4.5625 C-3.51722656 3.92441406 -2.97195312 3.28632813 -2.41015625 2.62890625 C-1.63204305 1.73008851 -0.84063472 0.84063472 0 0 Z " fill="#76A8AE" transform="translate(157,159)"/>
<path d="M0 0 C0 3.51716303 -0.82445585 4.37121748 -3 7 C-3.99 6.67 -4.98 6.34 -6 6 C-2.25 1.125 -2.25 1.125 0 0 Z " fill="#579599" transform="translate(179,140)"/>
<path d="M0 0 C0.66 0.33 1.32 0.66 2 1 C-1.61328125 5.6875 -1.61328125 5.6875 -3 7 C-3.99 7 -4.98 7 -6 7 C-6 6.34 -6 5.68 -6 5 C-5.34 5 -4.68 5 -4 5 C-4 4.34 -4 3.68 -4 3 C-2 1.375 -2 1.375 0 0 Z " fill="#ABDADA" transform="translate(80,73)"/>
<path d="M0 0 C0.33 0 0.66 0 1 0 C1.36237263 1.62318979 1.71465157 3.2486358 2.0625 4.875 C2.25972656 5.77992188 2.45695313 6.68484375 2.66015625 7.6171875 C3 10 3 10 2 12 C1.34 12 0.68 12 0 12 C0 8.04 0 4.08 0 0 Z " fill="#1D6466" transform="translate(220,239)"/>
<path d="M0 0 C0.99 0 1.98 0 3 0 C3 0.66 3 1.32 3 2 C3.99 2 4.98 2 6 2 C5.67 2.99 5.34 3.98 5 5 C3.68 5 2.36 5 1 5 C0.67 3.35 0.34 1.7 0 0 Z " fill="#227A82" transform="translate(256,215)"/>
<path d="M0 0 C-0.66 2.31 -1.32 4.62 -2 7 C-2.66 7 -3.32 7 -4 7 C-4.33 5.02 -4.66 3.04 -5 1 C-2 0 -2 0 0 0 Z " fill="#257E83" transform="translate(240,216)"/>
<path d="M0 0 C4.31392226 0.4793247 6.16569547 1.7457985 9 5 C4.98525763 5 3.18024863 3.33218233 0 1 C0 0.67 0 0.34 0 0 Z " fill="#A2C6C6" transform="translate(260,170)"/>
<path d="M0 0 C-1.485 1.485 -1.485 1.485 -3 3 C-4.98 2.34 -6.96 1.68 -9 1 C-5.64919071 -1.10976881 -3.77897651 -1.0497157 0 0 Z " fill="#ABDAD9" transform="translate(183,137)"/>
<path d="M0 0 C0 0.66 0 1.32 0 2 C-3.47325181 3.1577506 -6.36067448 3.06866652 -10 3 C-6.84916414 -0.15083586 -4.41812253 0 0 0 Z " fill="#1D575E" transform="translate(342,132)"/>
<path d="M0 0 C-2.93828597 2.50298434 -5.17902761 3.46930939 -9 4 C-9 3.01 -9 2.02 -9 1 C-5.8035914 -0.06546953 -3.34252724 -0.07427838 0 0 Z " fill="#649A9F" transform="translate(420,121)"/>
<path d="M0 0 C0.66 0 1.32 0 2 0 C3.60355101 3.50776784 4.22036864 6.14354879 4 10 C1.16625119 6.79663178 0.4794463 4.21912747 0 0 Z " fill="#B1D8D9" transform="translate(68,102)"/>
<path d="M0 0 C0.66 0 1.32 0 2 0 C2.66 2.31 3.32 4.62 4 7 C3.34 7.66 2.68 8.32 2 9 C1.34 6.03 0.68 3.06 0 0 Z " fill="#A8D7D4" transform="translate(355,291)"/>
<path d="M0 0 C0.66 0.33 1.32 0.66 2 1 C0.25 6.75 0.25 6.75 -2 9 C-1.125 2.25 -1.125 2.25 0 0 Z " fill="#518485" transform="translate(155,260)"/>
<path d="M0 0 C1 3 1 3 0.0625 5.1875 C-0.4634375 6.0846875 -0.4634375 6.0846875 -1 7 C-1.66 7 -2.32 7 -3 7 C-2.25 2.25 -2.25 2.25 0 0 Z " fill="#589399" transform="translate(225,224)"/>
<path d="M0 0 C0.33 0.66 0.66 1.32 1 2 C2.32 1.67 3.64 1.34 5 1 C3.35 2.65 1.7 4.3 0 6 C-0.66 5.01 -1.32 4.02 -2 3 C-1.34 2.01 -0.68 1.02 0 0 Z " fill="#3F8991" transform="translate(139,178)"/>
<path d="M0 0 C1.98 0.495 1.98 0.495 4 1 C4 1.99 4 2.98 4 4 C2.35 3.67 0.7 3.34 -1 3 C-0.67 2.01 -0.34 1.02 0 0 Z M-3 3 C-2.34 3.33 -1.68 3.66 -1 4 C-1.99 4 -2.98 4 -4 4 C-3.67 3.67 -3.34 3.34 -3 3 Z " fill="#6EB4B9" transform="translate(275,152)"/>
<path d="M0 0 C2.49361571 1.20381448 4.68143083 2.45428722 7 4 C7 4.66 7 5.32 7 6 C4.13275314 5.42655063 3.1385485 5.1385485 1 3 C0.67 2.01 0.34 1.02 0 0 Z " fill="#76A4A6" transform="translate(419,74)"/>
</svg>
